<?xml version="1.0" encoding="UTF-8"?>
<svg width="26px" height="26px" viewBox="0 0 26 26" version="1.1" xmlns="http://www.w3.org/2000/svg" xmlns:xlink="http://www.w3.org/1999/xlink">
    <!-- Generator: Sketch 51.3 (57544) - http://www.bohemiancoding.com/sketch -->
    <title>membership</title>
    <desc>Created with Sketch.</desc>
    <defs></defs>
    <g id="Nutries-Retreat" stroke="none" stroke-width="1" fill="none" fill-rule="evenodd">
        <g id="memberships" transform="translate(-232.000000, -733.000000)" fill="#FFFFFF" fill-rule="nonzero">
            <g id="side-bar" transform="translate(114.000000, 0.000000)">
                <g id="tasks" transform="translate(0.000000, 716.000000)">
                    <g id="icon" transform="translate(101.000000, 0.000000)">
                        <g id="membership" transform="translate(17.000000, 17.000000)">
                            <g id="id-card">
                                <path d="M12.779661,1.3 C12.0495219,1.3 11.4576271,1.88202983 11.4576271,2.6 C11.4576271,3.31797017 12.0495219,3.9 12.779661,3.9 C13.5098002,3.9 14.1016949,3.31797017 14.1016949,2.6 C14.1016949,1.88202983 13.5098002,1.3 12.779661,1.3 Z M12.779661,3.03333333 C12.5362813,3.03333333 12.3389831,2.83932339 12.3389831,2.6 C12.3389831,2.36067661 12.5362813,2.16666667 12.779661,2.16666667 C13.0230407,2.16666667 13.220339,2.36067661 13.220339,2.6 C13.220339,2.83932339 13.0230407,3.03333333 12.779661,3.03333333 Z" id="Shape"></path>
                                <polygon id="Path" points="11.8983051 4.76666667 13.6610169 4.76666667 13.6610169 5.63333333 11.8983051 5.63333333"></polygon>
                                <path d="M25.559322,17.693 L25.559322,6.06666667 C25.5571441,5.34958545 24.9665233,4.76880829 24.2372881,4.76666667 L15.4237288,4.76666667 L15.4237288,0.433333333 C15.4237288,0.194009942 15.2264306,0 14.9830508,0 L10.5762712,0 C10.3328915,0 10.1355932,0.194009942 10.1355932,0.433333333 L10.1355932,4.76666667 L1.3220339,4.76666667 C0.592798766,4.76880829 0.00217791938,5.34958545 0,6.06666667 L0,19.9333333 C0.00217791938,20.6504145 0.592798766,21.2311917 1.3220339,21.2333333 L13.8064407,21.2333333 C14.4855176,24.2542461 17.3675769,26.2887346 20.4955191,25.9552532 C23.6234614,25.6217718 25.9951244,23.0271648 26,19.9333333 C25.9998635,19.1657431 25.8502782,18.4052764 25.559322,17.693 Z M11.0169492,0.866666667 L14.5423729,0.866666667 L14.5423729,6.5 L11.0169492,6.5 L11.0169492,0.866666667 Z M13.6830508,20.3666667 L1.3220339,20.3666667 C1.07865418,20.3666667 0.881355932,20.1726567 0.881355932,19.9333333 L0.881355932,6.06666667 C0.881355932,5.82734328 1.07865418,5.63333333 1.3220339,5.63333333 L10.1355932,5.63333333 L10.1355932,6.93333333 C10.1355932,7.17265672 10.3328915,7.36666667 10.5762712,7.36666667 L14.9830508,7.36666667 C15.2264306,7.36666667 15.4237288,7.17265672 15.4237288,6.93333333 L15.4237288,5.63333333 L24.2372881,5.63333333 C24.4806679,5.63333333 24.6779661,5.82734328 24.6779661,6.06666667 L24.6779661,16.1936667 C23.0573183,14.1556283 20.2995951,13.3541228 17.8126166,14.1983194 C15.3256381,15.042516 13.6579936,17.3461978 13.6610169,19.9333333 C13.6610169,20.0806667 13.6742373,20.2236667 13.6830508,20.3666667 Z M19.8305085,25.1333333 C16.9099518,25.1333333 14.5423729,22.805214 14.5423729,19.9333333 C14.5423729,17.0614526 16.9099518,14.7333333 19.8305085,14.7333333 C22.7510651,14.7333333 25.1186441,17.0614526 25.1186441,19.9333333 C25.1162141,22.8042237 22.750058,25.1309439 19.8305085,25.1333333 Z" id="Shape"></path>
                                <path d="M18.5084746,21.9206 L16.6166441,20.0603 L15.9935254,20.6730333 L18.1969153,22.8397 C18.3689999,23.0088655 18.6479492,23.0088655 18.8200339,22.8397 L23.6674915,18.0730333 L23.0443729,17.4603 L18.5084746,21.9206 Z" id="Path"></path>
                                <path d="M9.25423729,8.23333333 L2.20338983,8.23333333 C1.96001011,8.23333333 1.76271186,8.42734328 1.76271186,8.66666667 L1.76271186,15.6 C1.76271186,15.8393234 1.96001011,16.0333333 2.20338983,16.0333333 L9.25423729,16.0333333 C9.49761701,16.0333333 9.69491525,15.8393234 9.69491525,15.6 L9.69491525,8.66666667 C9.69491525,8.42734328 9.49761701,8.23333333 9.25423729,8.23333333 Z M3.12440678,15.1666667 C3.33828135,13.916177 4.43926958,13.0004144 5.72881356,13.0004144 C7.01835754,13.0004144 8.11934577,13.916177 8.33322034,15.1666667 L3.12440678,15.1666667 Z M4.84745763,11.2666667 C4.84745763,10.7880199 5.24205412,10.4 5.72881356,10.4 C6.215573,10.4 6.61016949,10.7880199 6.61016949,11.2666667 C6.61016949,11.7453134 6.215573,12.1333333 5.72881356,12.1333333 C5.2426568,12.1319056 4.84890957,11.7447208 4.84745763,11.2666667 Z M8.81355932,13.9273333 C8.42322012,13.2348447 7.80460354,12.6937883 7.05966102,12.3933333 C7.67698073,11.6943992 7.62680833,10.6418171 6.94571036,10.0027275 C6.26461239,9.36363797 5.19301473,9.36363797 4.51191676,10.0027275 C3.83081879,10.6418171 3.78064639,11.6943992 4.3979661,12.3933333 C3.65302358,12.6937883 3.034407,13.2348447 2.6440678,13.9273333 L2.6440678,9.1 L8.81355932,9.1 L8.81355932,13.9273333 Z" id="Shape"></path>
                                <polygon id="Path" points="10.5762712 8.66666667 23.7966102 8.66666667 23.7966102 9.53333333 10.5762712 9.53333333"></polygon>
                                <polygon id="Path" points="10.5762712 10.8333333 23.7966102 10.8333333 23.7966102 11.7 10.5762712 11.7"></polygon>
                                <polygon id="Path" points="10.5762712 13 14.9830508 13 14.9830508 13.8666667 10.5762712 13.8666667"></polygon>
                            </g>
                        </g>
                    </g>
                </g>
            </g>
        </g>
    </g>
</svg>