<?xml version="1.0" encoding="UTF-8"?>
<svg width="36px" height="62px" viewBox="0 0 36 62" version="1.1" xmlns="http://www.w3.org/2000/svg" xmlns:xlink="http://www.w3.org/1999/xlink">
    <!-- Generator: Sketch 51.3 (57544) - http://www.bohemiancoding.com/sketch -->
    <title>microphone-3</title>
    <desc>Created with Sketch.</desc>
    <defs></defs>
    <g id="Nutries-Retreat" stroke="none" stroke-width="1" fill="none" fill-rule="evenodd">
        <g id="upload-step1" transform="translate(-896.000000, -545.000000)">
            <g id="upload" transform="translate(503.000000, 232.000000)">
                <g id="cards" transform="translate(166.000000, 287.000000)">
                    <g id="audios" transform="translate(170.000000, 0.000000)">
                        <g id="microphone-3" transform="translate(58.000000, 27.000000)">
                            <path d="M15.2166048,40.968558 C7.1018507,40.0795659 0.767001762,33.1832736 0.767001762,24.8360656 L0.767001762,20.4098361 L3.4719198,20.4098361 L3.4719198,24.8360656 C3.4719198,32.3053279 9.52724766,38.3606557 16.99651,38.3606557 C24.4662526,38.3606557 30.5211001,32.3053279 30.5211001,24.8360656 L30.5211001,20.4098361 L33.2260182,20.4098361 L33.2260182,24.8360656 C33.2260182,33.1832736 26.8916496,40.0795659 18.7768955,40.968558 C17.5934939,41.0977523 16.3995261,41.0977523 15.2166048,40.968558 Z" id="Path" fill="#6FE3FF"></path>
                            <path d="M7.16332611,54.35771 L26.9103804,54.35771 C29.5836001,54.3581903 31.7506083,56.5251985 31.7506083,59.1984183 L2.2424116,59.1984183 C2.2424116,56.5247182 4.40990016,54.35771 7.08311988,54.35771 L7.16332611,54.35771 Z" id="Path" fill="#94E7EF"></path>
                            <polygon id="Path" fill="#94E7EF" points="26.8325755 20.4098361 30.5211001 20.4098361 30.5211001 23.1147541 26.8325755 23.1147541"></polygon>
                            <path d="M7.16044439,20.4098361 L7.16044439,10.5737705 C7.16044439,5.14136139 11.5645812,0.737704918 16.99651,0.737704918 C22.4289191,0.737704918 26.8325755,5.14136139 26.8325755,10.5737705 L26.8325755,24.8360656 C26.8325755,30.2684747 22.4289191,34.6721311 16.99651,34.6721311 C11.5645812,34.6721311 7.16044439,30.2684747 7.16044439,24.8360656 L7.16044439,20.4098361 Z" id="Path" fill="#9B8CCC"></path>
                            <path d="M15.2166048,50.7541944 L23.1440509,50.7541944 C25.1482453,50.7537141 26.7855085,52.3544761 26.8301742,54.35771 L7.16332611,54.35771 C7.2079918,52.3544761 8.84525484,50.7537141 10.848969,50.7541944 L15.2166048,50.7541944 Z" id="Path" fill="#6F7CCD"></path>
                            <path d="M18.7768955,40.968558 L18.7768955,50.7541944 L15.2166048,50.7541944 L15.2166048,40.968558 C16.3995261,41.0977523 17.5934939,41.0977523 18.7768955,40.968558 Z" id="Path" fill="#94E7EF"></path>
                            <polygon id="Path" fill="#94E7EF" points="3.4719198 20.4098361 7.16044439 20.4098361 7.16044439 23.1147541 3.4719198 23.1147541"></polygon>
                            <path d="M29.6664998,36.2601469 C27.0417334,39.177416 23.4908988,41.0988389 19.6146004,41.7013662 L19.6146004,49.9164895 L23.144636,49.9164912 C25.3021649,49.929114 27.1510621,51.4527511 27.5808715,53.5601256 C30.4314499,53.9021716 32.5849204,56.3196803 32.5883132,59.1984183 C32.5883132,59.6610773 32.2134359,60.0361232 31.7506083,60.0361232 L2.2424116,60.0361232 C1.77990853,60.0361232 1.40470668,59.6609214 1.40470668,59.1984183 C1.40470668,56.3181264 3.56025927,53.8983154 6.41265025,53.5600206 C6.84248609,51.4527696 8.6913008,49.9291143 10.848969,49.9164895 L14.3788999,49.9164895 L14.3788999,41.7017626 C6.07267841,40.4027963 -0.0605922934,33.2517589 -0.0707031557,24.8360656 L-0.0707031557,20.4098361 C-0.0707031557,19.947333 0.304498697,19.5721311 0.767001762,19.5721311 L6.32273947,19.5721311 L6.32273947,10.5737705 C6.32273947,4.67885837 11.1015979,-0.1 16.99651,-0.1 C22.8917372,-0.1 27.6702805,4.67869316 27.6702805,10.5737705 L27.6702805,19.5721311 L33.2260182,19.5721311 C33.6888458,19.5721311 34.0637231,19.9471771 34.0637231,20.4098361 L34.0637231,24.8360312 C34.0651724,29.0574598 32.4979703,33.1291051 29.6664998,36.2601469 Z M4.30962471,23.952459 L4.30962471,24.8360656 C4.30962471,31.8428248 9.98975073,37.5229508 16.99651,37.5229508 C24.0032692,37.5229508 29.6833952,31.8428248 29.6833952,24.8360656 L29.6833952,23.952459 L27.6702805,23.952459 L27.6702805,24.8360656 C27.6702805,30.7311429 22.8917372,35.5098361 16.99651,35.5098361 C11.1015979,35.5098361 6.32273947,30.7309777 6.32273947,24.8360656 L6.32273947,23.952459 L4.30962471,23.952459 Z M6.32273947,22.2770492 L6.32273947,21.247541 L4.30962471,21.247541 L4.30962471,22.2770492 L6.32273947,22.2770492 Z M29.6833952,22.2770492 L29.6833952,21.247541 L27.6702805,21.247541 L27.6702805,22.2770492 L29.6833952,22.2770492 Z M16.996586,1.57540982 C12.3491845,1.58156548 8.47560106,5.12066944 8.04003519,9.73606557 L12.7402984,9.73606557 C13.2028015,9.73606557 13.5780034,10.1112674 13.5780034,10.5737705 C13.5780034,11.0362736 13.2028015,11.4114754 12.7402984,11.4114754 L7.9981493,11.4114754 L7.9981493,12.195082 L12.7402984,12.195082 C13.2028015,12.195082 13.5780034,12.5702838 13.5780034,13.0327869 C13.5780034,13.49529 13.2028015,13.8704918 12.7402984,13.8704918 L7.9981493,13.8704918 L7.9981493,14.6540984 L12.7402984,14.6540984 C13.2028015,14.6540984 13.5780034,15.0293002 13.5780034,15.4918033 C13.5780034,15.9543063 13.2028015,16.3295082 12.7402984,16.3295082 L7.9981493,16.3295082 L7.9981493,17.1131148 L12.7402984,17.1131148 C13.2028015,17.1131148 13.5780034,17.4883166 13.5780034,17.9508197 C13.5780034,18.4133227 13.2028015,18.7885246 12.7402984,18.7885246 L7.9981493,18.7885246 L7.9981493,19.5721311 L12.7402984,19.5721311 C13.2028015,19.5721311 13.5780034,19.947333 13.5780034,20.4098361 C13.5780034,20.8723391 13.2028015,21.247541 12.7402984,21.247541 L7.9981493,21.247541 L7.9981493,24.8360656 C7.9981493,29.8054913 12.0270843,33.8344262 16.99651,33.8344262 C21.9662493,33.8344262 25.9948706,29.805658 25.9948706,24.8360656 L25.9948706,21.247541 L21.2532018,21.247541 C20.7906988,21.247541 20.4154969,20.8723391 20.4154969,20.4098361 C20.4154969,19.947333 20.7906988,19.5721311 21.2532018,19.5721311 L25.9948706,19.5721311 L25.9948706,18.7885246 L21.2532018,18.7885246 C20.7906988,18.7885246 20.4154969,18.4133227 20.4154969,17.9508197 C20.4154969,17.4883166 20.7906988,17.1131148 21.2532018,17.1131148 L25.9948706,17.1131148 L25.9948706,16.3295082 L21.2532018,16.3295082 C20.7906988,16.3295082 20.4154969,15.9543063 20.4154969,15.4918033 C20.4154969,15.0293002 20.7906988,14.6540984 21.2532018,14.6540984 L25.9948706,14.6540984 L25.9948706,13.8704918 L21.2532018,13.8704918 C20.7906988,13.8704918 20.4154969,13.49529 20.4154969,13.0327869 C20.4154969,12.5702838 20.7906988,12.195082 21.2532018,12.195082 L25.9948706,12.195082 L25.9948706,11.4114754 L21.2532018,11.4114754 C20.7906988,11.4114754 20.4154969,11.0362736 20.4154969,10.5737705 C20.4154969,10.1112674 20.7906988,9.73606557 21.2532018,9.73606557 L25.9541066,9.73606557 C25.525076,5.11725012 21.6471947,1.57449556 16.996586,1.57540982 Z M32.3883132,21.247541 L31.358805,21.247541 L31.358805,24.8360656 C31.358805,32.7683112 24.9287556,39.1983607 16.99651,39.1983607 C9.06457925,39.1983607 2.63421488,32.7681458 2.63421488,24.8360656 L2.63421488,21.247541 L1.60470621,21.247541 L1.60470668,24.8360906 C1.60375241,28.6429043 3.01710044,32.3142492 5.57045488,35.1376836 L5.57064169,35.1378908 C8.09268626,37.9423892 11.5582444,39.7210726 15.3076268,40.1357621 C16.4305284,40.2579308 17.5629718,40.2579308 18.6855807,40.1357944 C26.4809174,39.2644498 32.3787698,32.6792612 32.3883132,24.8360656 L32.3883132,21.247541 Z M5.42202329,35.2717287 C5.42199221,35.2716942 5.42196112,35.2716596 5.42193003,35.271625 L5.42211684,35.2718322 C5.42208566,35.2717977 5.42205448,35.2717632 5.42202329,35.2717287 Z M3.16773131,58.3607134 L3.04591451,58.3607134 L3.14427502,58.478747 C3.15153029,58.4391745 3.15935216,58.3998274 3.16773131,58.3607134 Z M30.8247093,58.3607134 C30.8331265,58.3998532 30.8409862,58.4392267 30.8482793,58.4788259 L30.9466253,58.5607134 L30.9471055,58.5607134 L30.9471055,58.3607134 L30.8247093,58.3607134 Z M8.15533045,53.5200051 L8.01821852,53.5200051 L8.11411645,53.6483528 C8.12690723,53.6050825 8.14065426,53.5622932 8.15533045,53.5200051 Z M25.8381679,53.5200051 C25.8528454,53.5622934 25.8665931,53.6050827 25.8793838,53.6483528 L25.9752818,53.7200051 L25.975762,53.7200051 L25.975762,53.5200051 L25.8381679,53.5200051 Z M16.0543097,49.9164895 L17.9391906,49.9164895 L17.9391906,41.875998 C17.6091534,41.8939853 17.296875,41.9032787 16.99651,41.9032787 C16.6922985,41.9032787 16.3784386,41.8940594 16.0543097,41.8761157 L16.0543097,49.9164895 Z" id="Shape" stroke="#1E0478" stroke-width="0.2" fill="#1E0478" fill-rule="nonzero"></path>
                        </g>
                    </g>
                </g>
            </g>
        </g>
    </g>
</svg>