<?xml version="1.0" encoding="UTF-8"?>
<svg width="54px" height="60px" viewBox="0 0 54 60" version="1.1" xmlns="http://www.w3.org/2000/svg" xmlns:xlink="http://www.w3.org/1999/xlink">
    <!-- Generator: Sketch 51.3 (57544) - http://www.bohemiancoding.com/sketch -->
    <title>video-camera</title>
    <desc>Created with Sketch.</desc>
    <defs></defs>
    <g id="Nutries-Retreat" stroke="none" stroke-width="1" fill="none" fill-rule="evenodd">
        <g id="upload-step1" transform="translate(-717.000000, -546.000000)">
            <g id="upload" transform="translate(503.000000, 232.000000)">
                <g id="cards" transform="translate(166.000000, 287.000000)">
                    <g id="videos">
                        <g id="video-camera" transform="translate(48.000000, 27.000000)">
                            <path d="M53.9185325,23.1856641 L53.9185325,42.2650781 C53.9185325,42.7365234 53.6714416,43.1731641 53.267961,43.4142188 C53.0568701,43.5400781 52.8204156,43.6044141 52.5826753,43.6044141 C52.3649221,43.6044141 52.1471688,43.5508594 51.9495195,43.44375 L43.3122078,38.7830859 L43.3122078,42.778125 C43.3122078,43.5174609 42.7137662,44.1174609 41.9763506,44.1174609 L26.2179351,44.1174609 L33.458026,58.0419141 C33.7986234,58.696875 33.5448701,59.5057031 32.8916104,59.8485937 C32.693961,59.9517187 32.4828701,59.9998828 32.2744675,59.9998828 C31.7922078,59.9998828 31.3273636,59.7373828 31.0896234,59.2792969 L24.0151558,45.675 L16.9406883,59.2794141 C16.7015455,59.7375 16.2367013,60 15.7544416,60 C15.546039,60 15.3349481,59.9518359 15.1385844,59.8487109 C14.484039,59.5058203 14.2302857,58.696875 14.5708831,58.0420313 L21.8122597,44.1174609 L6.05255844,44.1174609 C5.31514286,44.1174609 4.7167013,43.5174609 4.7167013,42.778125 L4.7167013,36.6977344 L1.33585714,36.6977344 C0.597155844,36.6977344 0,36.0977344 0,35.3583984 L0,30.0923438 C0,29.3517188 0.597155844,28.7530078 1.33585714,28.7530078 L4.71681818,28.7530078 L4.71681818,22.6726172 C4.71681818,21.9332813 5.31525974,21.3332813 6.05267532,21.3332813 L7.27363636,21.3332813 C5.652,19.6953516 4.64738961,17.4426563 4.64738961,14.9582813 C4.64738961,9.96679688 8.69890909,5.90472656 13.6774286,5.90472656 C16.471987,5.90472656 18.9738701,7.18511719 20.6316234,9.18996094 C21.8993377,3.92414062 26.6374286,0 32.2731818,0 C38.876026,0 44.2486753,5.38523438 44.2486753,12.0066797 C44.2486753,15.7673438 42.5134286,19.1303906 39.8044286,21.3335156 L41.9764675,21.3335156 C42.7138831,21.3335156 43.3123247,21.9335156 43.3123247,22.6728516 L43.3123247,26.6678906 L51.9496364,22.0058203 C52.3637532,21.7821094 52.8647143,21.7941797 53.2680779,22.0352344 C53.6714416,22.2776953 53.9185325,22.7143359 53.9185325,23.1856641 Z M51.2469351,40.0231641 L51.2469351,25.4276953 L43.3122078,29.709375 L43.3122078,35.7414844 L51.2469351,40.0231641 Z M40.6406104,41.4389063 L40.6406104,36.5410547 L40.6406104,28.9098047 L40.6406104,24.0120703 L7.38841558,24.0120703 L7.38841558,30.0924609 L7.38841558,35.3585156 L7.38841558,41.4389063 L23.9911948,41.4389063 C23.9924805,41.4389063 23.9951688,41.4389063 23.9965714,41.4389063 L24.0312857,41.4389063 C24.033974,41.4389063 24.0366623,41.4376172 24.0393506,41.4389063 L40.6406104,41.4389063 Z M41.5770779,12.0066797 C41.5770779,6.8625 37.4027143,2.67855469 32.2731818,2.67855469 C27.1436494,2.67855469 22.9705714,6.8625 22.9705714,12.0066797 C22.9705714,17.1495703 27.1436494,21.3335156 32.2731818,21.3335156 C37.4027143,21.3335156 41.5770779,17.1495703 41.5770779,12.0066797 Z M20.0826234,21.3335156 L24.7432208,21.3335156 C23.6905714,20.4776953 22.7862468,19.4478516 22.0729091,18.2879297 C21.6174156,19.4356641 20.9375065,20.4710156 20.0826234,21.3335156 Z M20.0358701,14.9585156 C20.0358701,11.4441797 17.1839221,8.58351563 13.6774286,8.58351563 C10.1722208,8.58351563 7.31898701,11.4441797 7.31898701,14.9585156 C7.31898701,18.4741406 10.1722208,21.3335156 13.6774286,21.3335156 C17.1839221,21.3335156 20.0358701,18.4741406 20.0358701,14.9585156 Z M4.71681818,34.0191797 L4.71681818,31.4316797 L2.67171429,31.4316797 L2.67171429,34.0191797 L4.71681818,34.0191797 Z" id="Shape" fill="#1E0478" fill-rule="nonzero"></path>
                            <polygon id="Path" fill="#6F7CCD" points="51.2876104 25.4276953 51.2876104 40.0231641 43.353 35.7414844 43.353 29.709375"></polygon>
                            <path d="M40.6812857,36.5410547 L40.6812857,41.4387891 L24.0799091,41.4387891 C24.0772208,41.4375 24.0745325,41.4387891 24.0718442,41.4387891 L24.0371299,41.4387891 C24.0358442,41.4387891 24.0331558,41.4387891 24.0317532,41.4387891 L7.42909091,41.4387891 L7.42909091,35.3583984 L7.42909091,30.0923437 L7.42909091,24.0119531 L40.6812857,24.0119531 L40.6812857,28.9096875 L40.6812857,36.5410547 Z M36.3466753,30.5183203 C36.3466753,29.7789844 35.7482338,29.1789844 35.0108182,29.1789844 C34.2734026,29.1789844 33.674961,29.7789844 33.674961,30.5183203 C33.674961,31.2576563 34.2734026,31.8576562 35.0108182,31.8576562 C35.7482338,31.8575391 36.3466753,31.2575391 36.3466753,30.5183203 Z M36.3466753,34.9325391 C36.3466753,34.1919141 35.7482338,33.5932031 35.0108182,33.5932031 C34.2734026,33.5932031 33.674961,34.1919141 33.674961,34.9325391 C33.674961,35.671875 34.2734026,36.271875 35.0108182,36.271875 C35.7482338,36.271875 36.3466753,35.671875 36.3466753,34.9325391 Z M29.2734935,36.271875 L29.2734935,29.1789844 C29.2734935,28.4758594 28.7043896,27.9066797 28.0044935,27.9066797 L13.4802468,27.9066797 C12.7789481,27.9066797 12.2112468,28.4758594 12.2112468,29.1789844 L12.2112468,36.271875 C12.2112468,36.9737109 12.7789481,37.5441797 13.4802468,37.5441797 L28.0044935,37.5441797 C28.7045065,37.5441797 29.2734935,36.9737109 29.2734935,36.271875 Z" id="Shape" fill="#9B8CCC" fill-rule="nonzero"></path>
                            <path d="M32.3138571,2.67855469 C37.4433896,2.67855469 41.6177532,6.8625 41.6177532,12.0066797 C41.6177532,17.1495703 37.4433896,21.3335156 32.3138571,21.3335156 C27.1843247,21.3335156 23.0112468,17.1495703 23.0112468,12.0066797 C23.0112468,6.8625 27.1843247,2.67855469 32.3138571,2.67855469 Z M38.142,12.0066797 C38.142,8.784375 35.5277922,6.16335938 32.3138571,6.16335938 C29.1012078,6.16335938 26.4871169,8.784375 26.4871169,12.0066797 C26.4871169,15.2276953 29.1013247,17.8485937 32.3138571,17.8485937 C35.5277922,17.8487109 38.142,15.2276953 38.142,12.0066797 Z" id="Shape" fill="#94E7EF" fill-rule="nonzero"></path>
                            <g id="Group" transform="translate(12.155844, 6.093750)" fill="#1E0478">
                                <path d="M20.158013,0.069609375 C23.3719481,0.069609375 25.9861558,2.690625 25.9861558,5.91292969 C25.9861558,9.13394531 23.3719481,11.7548438 20.158013,11.7548438 C16.9453636,11.7548438 14.3312727,9.13382813 14.3312727,5.91292969 C14.3311558,2.690625 16.9453636,0.069609375 20.158013,0.069609375 Z M23.3145584,5.91292969 C23.3145584,4.16789062 21.8986364,2.74816406 20.158013,2.74816406 C18.4187922,2.74816406 17.0028701,4.16777344 17.0028701,5.91292969 C17.0028701,7.65667969 18.4187922,9.07628906 20.158013,9.07628906 C21.8985195,9.07628906 23.3145584,7.65667969 23.3145584,5.91292969 Z" id="Shape" fill-rule="nonzero"></path>
                                <path d="M22.854974,23.0852344 C23.5923896,23.0852344 24.1908312,23.6852344 24.1908312,24.4245703 C24.1908312,25.1639063 23.5923896,25.7639062 22.854974,25.7639062 C22.1175584,25.7639062 21.5191169,25.1639062 21.5191169,24.4245703 C21.5192338,23.6852344 22.1176753,23.0852344 22.854974,23.0852344 Z" id="Path"></path>
                                <path d="M22.854974,27.4995703 C23.5923896,27.4995703 24.1908312,28.0982812 24.1908312,28.8389063 C24.1908312,29.5782422 23.5923896,30.1782422 22.854974,30.1782422 C22.1175584,30.1782422 21.5191169,29.5782422 21.5191169,28.8389063 C21.5192338,28.0981641 22.1176753,27.4995703 22.854974,27.4995703 Z" id="Path"></path>
                                <path d="M17.1176494,23.0852344 L17.1176494,30.178125 C17.1176494,30.8799609 16.5485455,31.4504297 15.8486494,31.4504297 L1.3244026,31.4504297 C0.623103896,31.4504297 0.0554025974,30.8798437 0.0554025974,30.178125 L0.0554025974,23.0852344 C0.0554025974,22.3821094 0.623103896,21.8129297 1.3244026,21.8129297 L15.8486494,21.8129297 C16.5486623,21.8129297 17.1176494,22.3821094 17.1176494,23.0852344 Z M14.5796494,28.9058203 L14.5796494,24.3576563 L2.59351948,24.3576563 L2.59351948,28.9058203 L14.5796494,28.9058203 Z" id="Shape" fill-rule="nonzero"></path>
                            </g>
                            <rect id="Rectangle" fill="#6F7CCD" x="14.7493636" y="30.4512891" width="11.9862468" height="4.54816406"></rect>
                            <path d="M13.7181039,8.58351562 C17.2245974,8.58351562 20.0765455,11.4441797 20.0765455,14.9585156 C20.0765455,18.4741406 17.2245974,21.3335156 13.7181039,21.3335156 C10.2128961,21.3335156 7.35966234,18.4741406 7.35966234,14.9585156 C7.35966234,11.4441797 10.2128961,8.58351562 13.7181039,8.58351562 Z M17.7762857,14.9585156 C17.7762857,12.7151953 15.9555974,10.8897656 13.7181039,10.8897656 C11.4806104,10.8897656 9.66120779,12.7151953 9.66120779,14.9585156 C9.66120779,17.2018359 11.4806104,19.0272656 13.7181039,19.0272656 C15.9555974,19.0272656 17.7762857,17.2018359 17.7762857,14.9585156 Z" id="Shape" fill="#94E7EF" fill-rule="nonzero"></path>
                            <path d="M13.7181039,10.8897656 C15.9555974,10.8897656 17.7762857,12.7151953 17.7762857,14.9585156 C17.7762857,17.2018359 15.9555974,19.0272656 13.7181039,19.0272656 C11.4806104,19.0272656 9.66120779,17.2018359 9.66120779,14.9585156 C9.66120779,12.7151953 11.4806104,10.8897656 13.7181039,10.8897656 Z M15.3717662,14.9585156 C15.3717662,14.0451563 14.6303766,13.3004297 13.717987,13.3004297 C12.807,13.3004297 12.0656104,14.0450391 12.0656104,14.9585156 C12.0656104,15.8732813 12.807,16.6166016 13.717987,16.6166016 C14.6303766,16.6164844 15.3717662,15.8731641 15.3717662,14.9585156 Z" id="Shape" fill="#1E0478" fill-rule="nonzero"></path>
                            <rect id="Rectangle" fill="#6F7CCD" x="2.71238961" y="31.4316797" width="2.0451039" height="2.5875"></rect>
                        </g>
                    </g>
                </g>
            </g>
        </g>
    </g>
</svg>