<?xml version="1.0" encoding="UTF-8"?>
<svg width="26px" height="26px" viewBox="0 0 26 26" version="1.1" xmlns="http://www.w3.org/2000/svg" xmlns:xlink="http://www.w3.org/1999/xlink">
    <!-- Generator: Sketch 51.3 (57544) - http://www.bohemiancoding.com/sketch -->
    <title>hired</title>
    <desc>Created with Sketch.</desc>
    <defs></defs>
    <g id="Nutries-Retreat" stroke="none" stroke-width="1" fill="none" fill-rule="evenodd">
        <g id="memberships" transform="translate(-232.000000, -579.000000)" fill="#FFFFFF">
            <g id="side-bar" transform="translate(114.000000, 0.000000)">
                <g id="members" transform="translate(0.000000, 563.000000)">
                    <g id="icon" transform="translate(101.000000, 0.000000)">
                        <g id="hired" transform="translate(17.000000, 16.000000)">
                            <path d="M23.2245508,20.7205781 C23.5032383,20.3354531 23.668125,19.862832 23.668125,19.3522266 L23.668125,16.3007812 C23.668125,16.0203164 23.4407266,15.7929688 23.1603125,15.7929688 L20.8907969,15.7929688 C19.8416562,15.7929688 18.988125,16.6465 18.988125,17.6956406 L18.988125,19.3522266 C18.988125,19.8625273 19.1528086,20.334793 19.4311406,20.7198164 C19.084,20.7761328 18.7500117,20.8873437 18.4385195,21.0501484 C17.7329648,19.9973516 16.5770313,19.2712812 15.2486953,19.1487969 C15.2435156,19.1473242 15.2382344,19.1462578 15.2330039,19.1449883 C15.7082656,18.6142734 15.9979727,17.9141016 15.9979727,17.1473047 L15.9979727,13 C15.9979727,12.7195352 15.7705742,12.4921875 15.4901602,12.4921875 L12.4056055,12.4921875 C11.0802656,12.4921875 10.0020273,13.5704258 10.0020273,14.8957656 L10.0020273,17.1472539 C10.0020273,17.9140508 10.2917344,18.6142227 10.7669961,19.1449375 C10.7617656,19.146207 10.7564844,19.1473242 10.7513047,19.1487461 C9.42281641,19.2712305 8.26683203,19.9974023 7.56132812,21.0503516 C7.24973437,20.8875977 6.91569531,20.7762852 6.56870703,20.7199687 C6.84708984,20.3349453 7.011875,19.8625781 7.011875,19.3522266 L7.011875,16.3007812 C7.011875,16.0203164 6.78447656,15.7929688 6.5040625,15.7929688 L4.23454688,15.7929688 C3.18540625,15.7929688 2.331875,16.6465 2.331875,17.6956406 L2.331875,19.3522266 C2.331875,19.8628828 2.49676172,20.3354531 2.77544922,20.7205781 C1.20361719,20.9774805 0,22.3444609 0,23.987793 L0,25.4921875 C0,25.7726523 0.227398437,26 0.5078125,26 L25.4921875,26 C25.7726016,26 26,25.7726523 26,25.4921875 L26,23.987793 C26,22.3444609 24.7963828,20.9774805 23.2245508,20.7205781 Z M3.3475,17.6956406 C3.3475,17.2065156 3.74542187,16.8085938 4.23454688,16.8085938 L5.99625,16.8085938 L5.99625,17.4270586 C5.99625,17.7303242 5.74955469,17.9770195 5.44633984,17.9770195 L3.3475,17.9770195 L3.3475,17.6956406 Z M3.3475,18.9925938 L5.44633984,18.9925938 C5.63981641,18.9925938 5.82506641,18.9570977 5.99625,18.8926055 L5.99625,19.3522266 C5.99625,20.0824609 5.40216016,20.6766016 4.671875,20.6766016 C3.94158984,20.6766016 3.3475,20.0824609 3.3475,19.3522266 L3.3475,18.9925938 Z M4.99926172,21.6922266 L4.671875,22.0196133 L4.34448828,21.6922266 L4.99926172,21.6922266 Z M6.83271875,23.4475313 L6.83271875,24.984375 L1.015625,24.984375 L1.015625,23.987793 C1.015625,22.8488203 1.84960547,21.9013438 2.93886328,21.7228984 L4.31280078,23.0968359 C4.40806641,23.1920508 4.53720313,23.2455742 4.671875,23.2455742 C4.80654688,23.2455742 4.93568359,23.1920508 5.03094922,23.0968359 L6.40529297,21.7224414 C6.64802734,21.7619492 6.88146875,21.8402031 7.09901562,21.9546641 C6.92696875,22.420125 6.83271875,22.9230117 6.83271875,23.4475313 Z M13.0000508,19.1296523 C11.9069844,19.1296523 11.0177031,18.2403711 11.0177031,17.1473047 L11.0177031,16.4761289 L14.0525937,16.4761289 C14.3891211,16.4761289 14.7059961,16.3901563 14.9823984,16.2391328 L14.9823984,17.1473047 C14.9823984,18.2403711 14.0931172,19.1296523 13.0000508,19.1296523 Z M13.8852188,20.1452266 L13,21.0304453 L12.1147813,20.1452266 L13.8852188,20.1452266 Z M11.0176016,14.8957656 L11.0176523,14.8957656 C11.0176523,14.1304414 11.6402812,13.5078125 12.4056055,13.5078125 L14.9823477,13.5078125 L14.9823477,14.53075 C14.9823477,15.0434375 14.5652305,15.4605547 14.052543,15.4605547 L11.0176016,15.4605547 L11.0176016,14.8957656 Z M18.1516055,24.984375 L17.1640625,24.984375 L8.8359375,24.984375 L7.84839453,24.984375 L7.84839453,23.96875 L11.1549648,23.96875 C11.4353789,23.96875 11.6627773,23.7414023 11.6627773,23.4609375 C11.6627773,23.1804727 11.4353789,22.953125 11.1549648,22.953125 L7.88551563,22.953125 C8.10316406,21.5098711 9.2584375,20.3705938 10.7089023,20.1756445 L12.6409258,22.107668 C12.7401016,22.2068437 12.8700508,22.2564062 13,22.2564062 C13.1299492,22.2564062 13.2598984,22.2068437 13.3590742,22.107668 L15.2910977,20.1756445 C16.903707,20.3923789 18.1516055,21.7765234 18.1516055,23.4475312 L18.1516055,24.984375 Z M20.00375,17.6956406 C20.00375,17.2065156 20.4016719,16.8085938 20.8907969,16.8085938 L22.6525,16.8085938 L22.6525,17.4270586 C22.6525,17.7303242 22.4058047,17.9770195 22.1025898,17.9770195 L20.00375,17.9770195 L20.00375,17.6956406 Z M20.00375,18.9925938 L22.1025898,18.9925938 C22.2960664,18.9925938 22.4813164,18.9570977 22.6525,18.8926055 L22.6525,19.3522266 C22.6525,20.0824609 22.0584102,20.6766016 21.328125,20.6766016 C20.5978398,20.6766016 20.00375,20.0824609 20.00375,19.3522266 L20.00375,18.9925938 Z M21.6555117,21.6922266 L21.328125,22.0196133 L21.0007383,21.6922266 L21.6555117,21.6922266 Z M19.1672305,24.984375 L19.1672305,23.4475312 C19.1672305,22.9229609 19.0729805,22.4200742 18.9008828,21.9545625 C19.1183281,21.84 19.3517187,21.7617969 19.5945039,21.7223398 L20.969,23.0968359 C21.0642656,23.1920508 21.1934023,23.2455742 21.3280742,23.2455742 C21.4627461,23.2455742 21.5918828,23.1920508 21.6871484,23.0968359 L23.0610859,21.7228984 C24.1503438,21.9013945 24.9843242,22.8488203 24.9843242,23.987793 L24.9843242,24.984375 L19.1672305,24.984375 Z" id="Shape" fill-rule="nonzero"></path>
                            <path d="M15.5027031,3.31794531 C15.3043516,3.11964453 14.9829063,3.11964453 14.7845039,3.31794531 L12.292668,5.80983203 L11.2154453,4.73260938 C11.0170938,4.53425781 10.6956484,4.53425781 10.4972969,4.73255859 C10.2989961,4.93085938 10.2989961,5.25240625 10.4972969,5.45075781 L11.9335938,6.88705469 C12.0288594,6.98226953 12.1579961,7.03579297 12.292668,7.03579297 C12.4273398,7.03579297 12.5564766,6.98226953 12.6517422,6.88705469 L15.5027031,4.03609375 C15.7010039,3.83779297 15.7010039,3.51624609 15.5027031,3.31794531 Z" id="Path"></path>
                            <path d="M15.0763437,0.440375 C14.8202539,0.326167969 14.5199844,0.4411875 14.4057266,0.697328125 C14.2914687,0.95346875 14.4065391,1.25373828 14.6626797,1.36794531 C16.1352852,2.02469922 17.0868242,3.49060156 17.0868242,5.1025 C17.0868242,7.35596875 15.2534687,9.18932422 13,9.18932422 C10.7465313,9.18932422 8.91317578,7.35596875 8.91317578,5.1025 C8.91317578,3.49892969 9.85785938,2.03607422 11.3198516,1.37576562 C11.5754336,1.26033984 11.689082,0.959511719 11.5736055,0.703929687 C11.4581797,0.448296875 11.1571992,0.334699219 10.9018203,0.450125 C9.07684375,1.27440625 7.89760156,3.10055078 7.89760156,5.10244922 C7.89755078,7.91598437 10.1865156,10.2049492 13,10.2049492 C15.8134844,10.2049492 18.1024492,7.91598437 18.1024492,5.1025 C18.1024492,3.09019141 16.914625,1.2601875 15.0763437,0.440375 Z" id="Path"></path>
                            <path d="M13.0181797,0 L13,0 C12.7195859,0 12.4921875,0.227347656 12.4921875,0.5078125 C12.4921875,0.788277344 12.7195859,1.015625 13,1.015625 L13.0134063,1.015625 C13.0142188,1.015625 13.0149805,1.015625 13.0158438,1.015625 C13.2951914,1.015625 13.5222852,0.789851563 13.5236055,0.510199219 C13.5249258,0.229734375 13.2986445,0.0013203125 13.0181797,0 Z" id="Path"></path>
                            <path d="M13.3589727,23.1019141 C13.2645703,23.0074609 13.1335547,22.953125 13,22.953125 C12.8664453,22.953125 12.7354297,23.0074609 12.6409766,23.1019141 C12.5465234,23.1963672 12.4921875,23.3273828 12.4921875,23.4609375 C12.4921875,23.5944922 12.5464727,23.7255078 12.6409766,23.8199609 C12.7354805,23.9144141 12.8664453,23.96875 13,23.96875 C13.1335547,23.96875 13.2645703,23.9144141 13.3589727,23.8199609 C13.4534258,23.7255078 13.5078125,23.5944922 13.5078125,23.4609375 C13.5078125,23.3273828 13.4534766,23.1963672 13.3589727,23.1019141 Z" id="Path"></path>
                        </g>
                    </g>
                </g>
            </g>
        </g>
    </g>
</svg>