<?xml version="1.0" encoding="UTF-8"?>
<svg width="28px" height="26px" viewBox="0 0 28 26" version="1.1" xmlns="http://www.w3.org/2000/svg" xmlns:xlink="http://www.w3.org/1999/xlink">
    <!-- Generator: Sketch 51.3 (57544) - http://www.bohemiancoding.com/sketch -->
    <title>audio</title>
    <desc>Created with Sketch.</desc>
    <defs></defs>
    <g id="Nutries-Retreat" stroke="none" stroke-width="1" fill="none" fill-rule="evenodd">
        <g id="memberships" transform="translate(-231.000000, -274.000000)" fill="#FFFFFF" stroke="#FFFFFF">
            <g id="side-bar" transform="translate(114.000000, 0.000000)">
                <g id="procedures" transform="translate(0.000000, 257.000000)">
                    <g id="icon" transform="translate(101.000000, 0.000000)">
                        <g id="audio" transform="translate(17.000000, 18.000000)">
                            <g id="speaker">
                                <path d="M15.9630485,0.000221709007 L11.5288684,0.000221709007 C11.428157,0.000166281755 11.3303834,0.0344203233 11.2517321,0.097330254 L4.72195843,5.32123788 L0.443418014,5.32123788 C0.198540416,5.32123788 0,5.51977829 0,5.76465589 L0,18.1803603 C0,18.4252379 0.198540416,18.6237783 0.443418014,18.6237783 L4.72195843,18.6237783 L11.2517321,23.8476305 C11.3303834,23.9105404 11.428157,23.9447945 11.5288684,23.944739 L15.9630485,23.944739 C16.2079261,23.944739 16.4064665,23.7461986 16.4064665,23.501321 L16.4064665,0.443584296 C16.4064665,0.198706697 16.2079261,0.000221709007 15.9630485,0.000221709007 Z M15.5196305,23.0579584 L11.6845081,23.0579584 L5.15473441,17.8340508 C5.07608314,17.7711409 4.97830947,17.7368868 4.87759815,17.7369423 L0.886836028,17.7369423 L0.886836028,6.2080739 L4.87759815,6.2080739 C4.97830947,6.20812933 5.07608314,6.17387529 5.15473441,6.11096536 L11.6845081,0.887057737 L15.5196305,0.887057737 L15.5196305,23.0579584 Z" id="Shape" fill-rule="nonzero"></path>
                                <path d="M19.3193718,6.95562125 C19.3158245,6.95190762 19.3121663,6.94830485 19.3085081,6.94475751 C19.1323603,6.77459584 18.8516767,6.77947344 18.681515,6.95562125 C18.5114088,7.13176905 18.5162309,7.41245266 18.6923788,7.58261432 C18.692545,7.5827806 18.6926559,7.58289145 18.6928222,7.58305774 C21.1170439,10.0075012 21.1168222,13.9380693 18.6923788,16.362291 C18.6097367,16.4451547 18.5632333,16.5573395 18.5630115,16.6743464 C18.5624573,16.919224 18.7605543,17.1182079 19.0054319,17.1187621 C19.1233256,17.1190947 19.2363972,17.0721478 19.3193718,16.9883972 C22.0896259,14.2178661 22.0896259,9.72620785 19.3193718,6.95562125 Z" id="Path" fill-rule="nonzero"></path>
                                <path d="M22.8277875,4.44726097 C22.8242402,4.44354734 22.820582,4.43994457 22.8169238,4.43639723 C22.640776,4.26623557 22.3600924,4.27111316 22.1899307,4.44726097 C22.0197691,4.62340878 22.0246467,4.90409238 22.2007945,5.07425404 C22.2009607,5.07442032 22.2011824,5.07464203 22.2013487,5.07480831 C26.0108083,8.88460046 26.0105866,15.0612471 22.2007945,18.8707621 C22.117709,18.953903 22.0709838,19.066642 22.0709838,19.1841478 C22.0709284,19.4290254 22.2694134,19.6276212 22.514291,19.6276767 C22.6319076,19.6276767 22.7446467,19.5808961 22.8277875,19.4977552 C22.8278984,19.4976443 22.8280647,19.4974781 22.8281755,19.4973672 C26.9840554,15.3412656 26.9838891,8.60308545 22.8277875,4.44726097 Z" id="Path" fill-rule="nonzero"></path>
                            </g>
                        </g>
                    </g>
                </g>
            </g>
        </g>
    </g>
</svg>