<?xml version="1.0" encoding="UTF-8"?>
<svg width="24px" height="22px" viewBox="0 0 24 22" version="1.1" xmlns="http://www.w3.org/2000/svg" xmlns:xlink="http://www.w3.org/1999/xlink">
    <!-- Generator: Sketch 51.3 (57544) - http://www.bohemiancoding.com/sketch -->
    <title>upload</title>
    <desc>Created with Sketch.</desc>
    <defs></defs>
    <g id="Nutries-Retreat" stroke="none" stroke-width="1" fill="none" fill-rule="evenodd">
        <g id="memberships" transform="translate(-233.000000, -429.000000)" fill="#FFFFFF">
            <g id="side-bar" transform="translate(114.000000, 0.000000)">
                <g id="products" transform="translate(0.000000, 410.000000)">
                    <g id="icon" transform="translate(101.000000, 0.000000)">
                        <g id="upload" transform="translate(18.000000, 18.000000)">
                            <g transform="translate(0.000000, 1.000000)">
                                <path d="M7.68029091,6.78487097 L10.9090909,3.6344 L10.9090909,16.6772774 C10.9090909,17.2651742 11.3975273,17.7417935 12,17.7417935 C12.6024727,17.7417935 13.0909091,17.2651742 13.0909091,16.6772774 L13.0909091,3.63447097 L16.3194182,6.78487097 C16.5324364,6.99273548 16.8116364,7.09670323 17.0907636,7.09670323 C17.3699636,7.09670323 17.6491636,6.99280645 17.8621818,6.78487097 C18.2882182,6.36914194 18.2882182,5.69516129 17.8621818,5.27943226 L12.7716364,0.311974194 C12.7460364,0.287064516 12.7192,0.263503226 12.6913455,0.241148387 C12.6792727,0.231496774 12.6665455,0.223122581 12.6542545,0.214109677 C12.6381091,0.202258065 12.6223273,0.190193548 12.6055273,0.179193548 C12.5904727,0.169329032 12.5748364,0.160812903 12.5593455,0.1518 C12.5442909,0.142929032 12.5295273,0.133774194 12.5139636,0.125612903 C12.4981818,0.117380645 12.4820364,0.110496774 12.4658909,0.103045161 C12.4496727,0.0955935484 12.4338182,0.087716129 12.4171636,0.0809741935 C12.4016,0.0747290323 12.3857455,0.0696193548 12.3699636,0.064083871 C12.3522182,0.0578387097 12.3346909,0.0511677419 12.3164364,0.0457741935 C12.3007273,0.0411612903 12.2848,0.0378258065 12.2690182,0.0339225806 C12.2504,0.0293096774 12.2319273,0.0242 12.2130182,0.0205096774 C12.1948364,0.0170322581 12.1764364,0.0149741935 12.1581091,0.0123483871 C12.1413091,0.00993548387 12.1246545,0.00688387097 12.1075636,0.0052516129 C12.0739636,0.00205806452 12.0402909,0.000496774194 12.0065455,0.000283870968 C12.0043636,0.000283870968 12.0022545,0 12.0000727,0 C11.9979636,0 11.9957818,0.000283870968 11.9936727,0.000283870968 C11.9599273,0.000425806452 11.9261818,0.00205806452 11.8925091,0.0052516129 C11.8758545,0.00688387097 11.8595636,0.00986451613 11.8430545,0.0122064516 C11.8242909,0.0148322581 11.8055273,0.0169612903 11.7869818,0.0205806452 C11.7685091,0.0241290323 11.7506182,0.0290967742 11.7325091,0.0335677419 C11.7160727,0.0376129032 11.6996364,0.0411612903 11.6833455,0.045916129 C11.6658182,0.0510967742 11.6487273,0.0575548387 11.6315636,0.0635870968 C11.6152,0.0693354839 11.5986909,0.0745870968 11.5825455,0.081116129 C11.5665455,0.0875741935 11.5512727,0.0951677419 11.5357091,0.102335484 C11.5189818,0.11 11.5021091,0.117309677 11.4856727,0.125825806 C11.4708364,0.13356129 11.4568727,0.14236129 11.4424,0.150735484 C11.4261818,0.160103226 11.4098909,0.169045161 11.3941091,0.179335484 C11.3783273,0.189625806 11.3635636,0.201122581 11.3483636,0.212122581 C11.3349818,0.221845161 11.3213818,0.230858065 11.3084364,0.241290323 C11.2818909,0.262509677 11.2565091,0.285006452 11.2321455,0.308496774 C11.2309818,0.309632258 11.2297455,0.310554839 11.2285091,0.311690323 L6.1376,5.27936129 C5.71163636,5.69509032 5.71156364,6.36907097 6.1376,6.7848 C6.56356364,7.2006 7.25432727,7.20045806 7.68029091,6.78487097 Z" id="XMLID_11_" fill-rule="nonzero"></path>
                                <path d="M22.9090909,10.6451613 C22.3066182,10.6451613 21.8181818,11.1217806 21.8181818,11.7096774 L21.8181818,19.8709677 L2.18181818,19.8709677 L2.18181818,11.7096774 C2.18181818,11.1217806 1.69338182,10.6451613 1.09090909,10.6451613 C0.488436364,10.6451613 0,11.1217806 0,11.7096774 L0,20.9354839 C0,21.5233806 0.488436364,22 1.09090909,22 L22.9090909,22 C23.5115636,22 24,21.5233806 24,20.9354839 L24,11.7096774 C24,11.1217806 23.5115636,10.6451613 22.9090909,10.6451613 Z" id="XMLID_12_" fill-rule="nonzero"></path>
                            </g>
                        </g>
                    </g>
                </g>
            </g>
        </g>
    </g>
</svg>