<?xml version="1.0" encoding="UTF-8"?>
<svg width="20px" height="20px" viewBox="0 0 20 20" version="1.1" xmlns="http://www.w3.org/2000/svg" xmlns:xlink="http://www.w3.org/1999/xlink">
    <!-- Generator: Sketch 51.3 (57544) - http://www.bohemiancoding.com/sketch -->
    <title>Group 3</title>
    <desc>Created with Sketch.</desc>
    <defs></defs>
    <g id="Nutries-Retreat" stroke="none" stroke-width="1" fill="none" fill-rule="evenodd">
        <g id="videos" transform="translate(-960.000000, -433.000000)">
            <g id="card-videos" transform="translate(406.000000, 250.000000)">
                <g id="opened-video" transform="translate(19.000000, 76.000000)">
                    <g id="video" transform="translate(477.000000, 79.000000)">
                        <g id="Group-3" transform="translate(56.000000, 26.000000)">
                            <g id="video">
                                <g id="Group-5">
                                    <polygon id="Stroke-1" stroke-opacity="0.0117647061" stroke="#000000" stroke-width="1.33333336e-11" points="0 0 23.999999 0 23.999999 23.999999 0 23.999999"></polygon>
                                    <path d="M13.0499994,9.78999941 L9.9999994,7.49999955 L9.9999994,16.499999 L13.0499994,14.2099991 L15.999999,11.9999993 L13.0499994,9.78999941 Z M13.0499994,9.78999941 L9.9999994,7.49999955 L9.9999994,16.499999 L13.0499994,14.2099991 L15.999999,11.9999993 L13.0499994,9.78999941 Z M13.0499994,9.78999941 L9.9999994,7.49999955 L9.9999994,16.499999 L13.0499994,14.2099991 L15.999999,11.9999993 L13.0499994,9.78999941 Z M10.9999993,4.06999996 L10.9999993,2.04999988 C8.98999926,2.24999986 7.15999937,3.04999982 5.67999946,4.25999994 L7.09999947,5.68999976 C8.20999951,4.82999961 9.53999943,4.24999975 10.9999993,4.06999996 Z M5.68999976,7.09999947 L4.25999994,5.67999946 C3.04999982,7.15999937 2.24999986,8.98999926 2.04999988,10.9999993 L4.06999946,10.9999993 C4.24999925,9.53999943 4.82999961,8.20999951 5.68999926,7.09999947 L5.68999976,7.09999947 Z M4.06999996,12.9999992 L2.04999988,12.9999992 C2.24999986,15.0099993 3.04999982,16.839999 4.25999994,18.3199989 L5.69000016,16.889998 C4.83000011,15.7899981 4.25000024,14.4599982 4.07000036,12.9999992 L4.06999996,12.9999992 Z M5.67999996,19.7399988 C7.15999937,20.9499997 8.99999946,21.7499987 10.9999993,21.9499997 L10.9999993,19.9299988 C9.53999943,19.7499988 8.20999951,19.1699988 7.09999947,18.3099979 L5.67999946,19.7399988 L5.67999996,19.7399988 Z M21.9999987,11.9999993 C21.9999987,17.159999 18.0799989,21.4199987 13.0499994,21.9499997 L13.0499994,19.9299988 C16.969998,19.4099988 19.9999988,16.0499982 19.9999988,11.9999993 C19.9999988,7.95000032 16.969998,4.58999992 13.0499994,4.06999946 L13.0499994,2.04999988 C18.0799989,2.57999975 21.9999987,6.83999979 21.9999987,11.9999993 Z" id="Fill-3" fill="#FFFFFF"></path>
                                </g>
                            </g>
                        </g>
                    </g>
                </g>
            </g>
        </g>
    </g>
</svg>