<?xml version="1.0" encoding="UTF-8"?>
<svg width="24px" height="14px" viewBox="0 0 24 14" version="1.1" xmlns="http://www.w3.org/2000/svg" xmlns:xlink="http://www.w3.org/1999/xlink">
    <!-- Generator: Sketch 51.3 (57544) - http://www.bohemiancoding.com/sketch -->
    <title>video-camera</title>
    <desc>Created with Sketch.</desc>
    <defs></defs>
    <g id="Nutries-Retreat" stroke="none" stroke-width="1" fill="none" fill-rule="evenodd">
        <g id="memberships" transform="translate(-231.000000, -128.000000)" fill="#FFFFFF">
            <g id="side-bar" transform="translate(114.000000, 0.000000)">
                <g id="dashboard" transform="translate(0.000000, 104.000000)">
                    <g id="icon" transform="translate(101.000000, 0.000000)">
                        <g id="video-camera" transform="translate(16.000000, 18.000000)">
                            <g transform="translate(0.000000, 6.000000)">
                                <path d="M22.6363594,0.025546875 L7.63635938,0.025546875 C6.8844375,0.025546875 6.27271875,0.637265625 6.27271875,1.3891875 L6.27271875,12.2982656 C6.27271875,13.0501875 6.8844375,13.6619062 7.63635938,13.6619062 L22.6363594,13.6619062 C23.3882813,13.6619062 24,13.0501875 24,12.2982656 L24,1.3891875 C24,0.6373125 23.3882813,0.025546875 22.6363594,0.025546875 Z M22.3636406,12.0255469 L7.90907813,12.0255469 L7.90907813,1.66195312 L22.3636406,1.66195312 L22.3636406,12.0255469 Z" id="Shape" fill-rule="nonzero"></path>
                                <path d="M6.7224375,8.7313125 L1.63635937,11.2965469 L1.63635937,2.37046875 L6.73279687,4.85226563 L7.44923437,3.38090625 L1.1765625,0.326390625 C0.922921875,0.203109375 0.623484375,0.218671875 0.3845625,0.368390625 C0.145359375,0.517546875 -1.89182003e-13,0.779953125 -1.89182003e-13,1.06195313 L-1.89182003e-13,12.6255938 C-1.89182003e-13,12.9097969 0.14728125,13.1735156 0.389203125,13.3223906 C0.52040625,13.4031094 0.669,13.44375 0.818203125,13.44375 C0.944203125,13.44375 1.07048437,13.4148281 1.18664062,13.3561875 L7.45935937,10.1922656 L6.7224375,8.7313125 Z" id="Path" fill-rule="nonzero"></path>
                            </g>
                        </g>
                    </g>
                </g>
            </g>
        </g>
    </g>
</svg>